<svg width="758" height="892" viewBox="0 0 758 892" fill="none" xmlns="http://www.w3.org/2000/svg">
<path d="M520.601 485.698C528.532 483.054 535.298 478.235 543.892 477.151C562.029 474.862 579.128 483.817 590.473 497.664C596.782 505.363 599.08 517.211 597.097 526.937C594.039 541.937 571.457 521.141 568.251 515.826C552.962 490.478 597.512 507.893 605.11 513.903C614.156 521.059 623.109 534.944 628.294 545.313" stroke="#0047D0" stroke-opacity="0.81" stroke-width="3" stroke-linecap="round"/>
<path d="M182.748 454.772C156.666 453.142 103.439 489.455 135.739 515.883C138.551 518.184 150.481 524.025 151.124 516.311C151.433 512.604 150.389 498.677 145.248 507.336C140.356 515.575 134.303 546.967 146.957 549.965C159.819 553.011 169.286 553.985 169.286 539.388" stroke="#0047D0" stroke-opacity="0.81" stroke-width="3" stroke-linecap="round"/>
<path d="M156.199 695.408L160.914 709.573H176.171L163.828 718.328L168.542 732.493L156.199 723.739L143.855 732.493L148.57 718.328L136.227 709.573H151.484L156.199 695.408Z" fill="#F8E11A"/>
<path d="M586.199 747.408L592.934 768.138H614.731L597.097 780.949L603.833 801.679L586.199 788.867L568.565 801.679L575.301 780.949L557.667 768.138H579.464L586.199 747.408Z" fill="#F8E11A"/>
<path d="M49.199 509.408L52.5667 520.809H63.4648L54.648 527.856L58.0158 539.257L49.199 532.211L40.3822 539.257L43.7499 527.856L34.9331 520.809H45.8313L49.199 509.408Z" fill="#F8E11A"/>
<path d="M686.199 390.408L692.934 411.138H714.731L697.097 423.949L703.833 444.679L686.199 431.867L668.565 444.679L675.301 423.949L657.667 411.138H679.464L686.199 390.408Z" fill="#F8E11A"/>
<path d="M94.199 300.408L100.934 321.138H122.731L105.097 333.949L111.833 354.679L94.199 341.867L76.5654 354.679L83.3008 333.949L65.6673 321.138H87.4636L94.199 300.408Z" fill="#F8E11A"/>
<path d="M665.199 259.408L671.934 280.138H693.731L676.097 292.949L682.833 313.679L665.199 300.867L647.565 313.679L654.301 292.949L636.667 280.138H658.464L665.199 259.408Z" fill="#F8E11A"/>
<path d="M623.737 595.947C631.668 593.303 638.434 588.484 647.028 587.4C665.165 585.111 682.264 594.066 693.609 607.913C699.918 615.612 702.216 627.46 700.233 637.186C697.175 652.186 674.593 631.39 671.387 626.075C656.097 600.727 700.648 618.142 708.246 624.152C717.292 631.308 726.245 645.193 731.43 655.562" stroke="#0047D0" stroke-opacity="0.81" stroke-width="3" stroke-linecap="round"/>
<path d="M187.199 782.485C179.681 781.574 173.477 777.88 166.259 776.075C150.648 772.172 142.268 792.371 142.541 804.921C142.683 811.466 148.143 829.129 158.353 825.861C166.747 823.175 157.041 813.802 153.652 811.866C137.279 802.51 111.871 814.54 94.4639 814.75C68.4474 815.064 47.6627 797.248 56.4297 770.947" stroke="#0047D0" stroke-opacity="0.81" stroke-width="3" stroke-linecap="round"/>
</svg>
